<?xml version="1.0" encoding="utf-8"?>
<!-- Generator: Adobe Illustrator 25.2.0, SVG Export Plug-In . SVG Version: 6.00 Build 0)  -->
<svg version="1.2" baseProfile="tiny" id="Layer_1" xmlns="http://www.w3.org/2000/svg" xmlns:xlink="http://www.w3.org/1999/xlink"
	 x="0px" y="0px" width="334px" height="100px" viewBox="0 0 334 100" overflow="visible" xml:space="preserve">
<g>
	<path d="M52.8,43.2c4.8,0,8.7-0.9,11.9-2.6c3.2-1.7,5.4-3.8,6.8-6.4c1.4-2.6,2.2-6.6,2.6-12c0.4-5.4,1-9.2,1.8-11.4
		c1.1-2.9,3.1-5.3,5.9-7.2c2.8-1.8,6.6-2.8,11.3-2.9v2.2c-2.8,0.2-4.6,1.1-5.6,2.6c-0.7,1.1-1.1,3.8-1.1,8.2
		c-0.1,8.6-1,14.7-2.5,18.1c-2,4.6-5.4,8.2-10.3,11c-4.9,2.8-11.8,4.3-20.7,4.6v23.5c0,3.3,0.7,5.7,2.2,7.1c1.5,1.4,3.9,2.1,7.4,2.1
		h2.1v2.2h-35v-2.2h2.1c3.5,0,6-0.7,7.4-2.1c1.5-1.4,2.2-3.8,2.2-7.1V47.4c-7.5-0.2-13.4-1.3-17.8-3.2c-4.4-1.9-7.9-4.5-10.6-7.9
		c-1.8-2.3-3.1-4.6-3.8-7c-0.5-1.7-0.9-3.7-1.2-6L7.5,9.6c-0.2-2.4-0.7-4.1-1.7-5c-1-0.9-2.7-1.5-5.2-1.7V0.7
		c4.9,0.2,8.7,1.1,11.3,2.7c2.6,1.6,4.6,3.7,5.7,6.4c1.2,2.7,1.9,7.2,2.3,13.5c0.3,4.7,1.1,8.3,2.4,10.9c1.3,2.6,3.6,4.7,6.8,6.4
		c3.2,1.7,7.2,2.5,12,2.6V13.1c0-3.3-0.7-5.7-2.2-7.1c-1.5-1.4-3.9-2.1-7.4-2.1h-2.1V1.7h35v2.2h-2.1c-3.5,0-6,0.7-7.4,2.1
		c-1.5,1.4-2.2,3.8-2.2,7.1V43.2z"/>
</g>
<g>
	<path d="M123.3,28.9v35.6c2.1-0.4,3.7-1.1,5-2.2c1.3-1.1,2.4-3,3.3-5.6c0.9-2.6,1.7-7.3,2.3-14.2c0.5-5.6,1.4-9.5,2.6-11.6
		c1.3-2.1,3.4-3.1,6.3-3.1c1,0,2.5,0.2,4.5,0.7v1.3c-1.1,0-2,0.2-2.6,0.6c-0.8,0.6-1.4,1.6-1.9,3c-0.5,1.4-0.9,4.1-1.3,8
		c-0.6,6.3-1.5,10.8-2.6,13.6c-0.9,2.1-2.2,4-3.9,5.8c-1.7,1.8-3.5,3.2-5.4,4.1c-1.9,0.9-4,1.5-6.4,1.8v16.6H119V66.8
		c-3.6-0.5-6.8-1.7-9.5-3.8s-4.8-4.7-6.1-7.9c-1-2.4-1.9-7-2.6-13.8c-0.5-4.1-0.9-6.8-1.4-8.2c-0.5-1.4-1.1-2.3-1.8-2.8
		c-0.5-0.3-1.4-0.5-2.6-0.5v-1.3c2.2-0.5,3.8-0.7,4.6-0.7c1.6,0,3,0.4,4.4,1.3c1.3,0.9,2.3,2.3,3,4.1c0.7,1.8,1.2,4.9,1.6,9.4
		c0.5,6.6,1.3,11.2,2.2,13.9c0.9,2.7,2,4.6,3.3,5.7c1.3,1.1,2.9,1.9,5.1,2.3V28.9H123.3z"/>
</g>
<rect x="6.5" y="90.9" width="135.2" height="9.1"/>
<g>
	<path d="M98.8,9.8c0-3.1,0-3.6,0-4.3c0-0.7-0.2-1-0.9-1.2c-0.2,0-0.5-0.1-0.8-0.1c-0.2,0-0.3,0-0.3-0.2s0.1-0.2,0.4-0.2
		c1.1,0,2.3,0.1,2.9,0.1c0.8,0,2-0.1,2.9-0.1c2.5,0,3.4,0.8,3.8,1.2c0.4,0.4,1,1.3,1,2.4c0,2.9-2.1,4.9-5,4.9c-0.1,0-0.3,0-0.4,0
		c-0.1,0-0.2,0-0.2-0.2c0-0.2,0.1-0.2,0.6-0.2c1.1,0,2.7-1.3,2.7-3.3c0-0.7-0.1-2-1.2-3c-0.7-0.7-1.6-0.8-2-0.8
		c-0.3,0-0.6,0-0.8,0.1c-0.1,0-0.2,0.2-0.2,0.4v8.1c0,1.9,0,3.5,0.1,4.3c0.1,0.6,0.2,1,0.8,1.1c0.3,0,0.7,0.1,1,0.1
		c0.2,0,0.3,0.1,0.3,0.2c0,0.1-0.2,0.2-0.4,0.2c-1.3,0-2.6-0.1-3.1-0.1c-0.5,0-1.7,0.1-2.5,0.1c-0.3,0-0.4-0.1-0.4-0.2
		c0-0.1,0.1-0.2,0.3-0.2c0.3,0,0.5,0,0.7-0.1c0.4-0.1,0.5-0.5,0.6-1.1c0.1-0.8,0.1-2.4,0.1-4.3V9.8z"/>
	<path d="M111,11.2c0-2.6,0-3.1,0-3.6c0-0.6-0.2-0.8-0.8-0.9c-0.1,0-0.4-0.1-0.7-0.1c-0.2,0-0.3-0.1-0.3-0.2s0.1-0.2,0.4-0.2
		c0.9,0,2.1,0,2.4,0c0.6,0,2.2,0,2.8,0c1.1,0,2.4,0.1,3.4,0.7c0.5,0.3,1.3,1.2,1.3,2.4c0,1.3-0.7,2.4-2.5,3.8
		c1.6,1.9,2.8,3.5,3.9,4.6c1,1,1.6,1.1,1.9,1.1c0.2,0,0.3,0,0.4,0s0.2,0.1,0.2,0.2c0,0.1-0.1,0.2-0.3,0.2h-1.7c-1,0-1.5-0.1-1.9-0.3
		c-0.8-0.4-1.4-1.2-2.4-2.5c-0.7-0.9-1.5-2.1-1.7-2.3c-0.1-0.1-0.2-0.1-0.3-0.1l-1.6,0c-0.1,0-0.1,0-0.1,0.1v0.2
		c0,1.6,0,2.9,0.1,3.7c0.1,0.5,0.1,0.8,0.7,0.9c0.3,0,0.6,0.1,0.9,0.1c0.1,0,0.2,0.1,0.2,0.2c0,0.1-0.1,0.2-0.4,0.2
		c-1,0-2.5-0.1-2.8-0.1c-0.3,0-1.5,0.1-2.2,0.1c-0.2,0-0.3-0.1-0.3-0.2c0-0.1,0.1-0.2,0.3-0.2c0.3,0,0.5,0,0.6-0.1
		c0.4-0.1,0.5-0.4,0.5-0.9c0.1-0.7,0.1-2.1,0.1-3.7V11.2z M113.2,12.5c0,0.2,0,0.2,0.2,0.3c0.4,0.1,0.9,0.2,1.4,0.2
		c0.7,0,0.9-0.1,1.3-0.3c0.5-0.4,1.2-1.1,1.2-2.5c0-2.4-1.7-3.1-2.7-3.1c-0.4,0-0.9,0-1.1,0.1c-0.1,0-0.2,0.1-0.2,0.2V12.5z"/>
	<path d="M122.1,12.7c0-2.9,2.1-6.7,7.5-6.7c4.5,0,7.3,2.5,7.3,6.4s-2.9,7-7.5,7C124.2,19.4,122.1,15.7,122.1,12.7z M134.2,13
		c0-3.8-2.3-6.1-5.2-6.1c-2,0-4.3,1.1-4.3,5.3c0,3.5,2,6.3,5.4,6.3C131.4,18.5,134.2,17.9,134.2,13z"/>
	<path d="M141.9,14.3c0,1.7,0,2.9,0.1,3.6c0.1,0.5,0.2,0.8,0.7,0.9c0.2,0,0.6,0.1,0.9,0.1c0.2,0,0.3,0.1,0.3,0.2
		c0,0.1-0.1,0.2-0.4,0.2c-1.1,0-2.4-0.1-2.8-0.1s-1.6,0.1-2.3,0.1c-0.2,0-0.4,0-0.4-0.2c0-0.1,0.1-0.2,0.3-0.2c0.3,0,0.5,0,0.6-0.1
		c0.4-0.1,0.5-0.4,0.5-0.9c0.1-0.7,0.1-2,0.1-3.7v-3c0-2.6,0-3.1,0-3.6c0-0.6-0.2-0.8-0.8-0.9c-0.1,0-0.4-0.1-0.7-0.1
		c-0.2,0-0.3-0.1-0.3-0.2s0.1-0.2,0.4-0.2c0.9,0,2,0,2.5,0c0.7,0,4.6,0,5.1,0c0.3,0,0.5,0,0.7-0.1c0.1,0,0.2-0.1,0.3-0.1
		c0.1,0,0.1,0.1,0.1,0.2c0,0.1-0.1,0.3-0.1,0.8c0,0.2-0.1,1.2-0.1,1.4c0,0.1-0.1,0.3-0.2,0.3s-0.2-0.1-0.2-0.3c0-0.1,0-0.4-0.1-0.6
		c-0.1-0.2-0.5-0.5-1.1-0.5l-2.9-0.1c-0.1,0-0.2,0-0.2,0.2v4.2c0,0.1,0,0.2,0.1,0.2l2.5,0c0.3,0,0.5,0,0.8,0c0.3,0,0.6-0.1,0.7-0.3
		c0.1-0.1,0.1-0.2,0.2-0.2c0.1,0,0.1,0.1,0.1,0.2s-0.1,0.6-0.1,1.1c0,0.3-0.1,1.1-0.1,1.3c0,0.1,0,0.4-0.2,0.4
		c-0.1,0-0.2-0.1-0.2-0.2s0-0.3-0.1-0.5c-0.1-0.2-0.3-0.6-0.8-0.6c-0.4,0-2.5-0.1-2.8-0.1c-0.1,0-0.1,0-0.1,0.1V14.3z"/>
	<path d="M156.2,9.8c0-3.1,0-3.6,0-4.3c0-0.7-0.2-1-0.9-1.2c-0.2,0-0.5-0.1-0.8-0.1c-0.2,0-0.3,0-0.3-0.2s0.1-0.2,0.4-0.2
		c1.1,0,2.3,0.1,2.9,0.1c0.6,0,1.9-0.1,3.1-0.1c2.5,0,5.9,0,8.1,2.3c1,1.1,2,2.7,2,5.1c0,2.5-1.1,4.5-2.2,5.6
		c-0.9,0.9-3,2.4-6.8,2.4c-0.7,0-1.6-0.1-2.3-0.1c-0.8-0.1-1.5-0.1-2-0.1c-0.2,0-0.7,0-1.2,0c-0.5,0-1,0-1.4,0
		c-0.3,0-0.4-0.1-0.4-0.2c0-0.1,0.1-0.2,0.3-0.2c0.3,0,0.5,0,0.7-0.1c0.4-0.1,0.5-0.5,0.6-1.1c0.1-0.8,0.1-2.4,0.1-4.3V9.8z
		 M158.7,12c0,2.1,0,3.7,0,4.1c0,0.5,0.1,1.3,0.2,1.5c0.3,0.4,1.1,0.8,2.6,0.8c2.1,0,3.4-0.4,4.6-1.5c1.3-1.1,1.7-2.9,1.7-5
		c0-2.6-1.1-4.2-1.9-5.1c-1.9-1.8-4.2-2-5.7-2c-0.4,0-1.2,0.1-1.3,0.1c-0.2,0.1-0.2,0.2-0.2,0.4c0,0.7,0,2.4,0,4V12z"/>
	<path d="M173.2,11.2c0-2.6,0-3.1,0-3.6c0-0.6-0.2-0.8-0.8-0.9c-0.1,0-0.4-0.1-0.7-0.1c-0.2,0-0.3-0.1-0.3-0.2s0.1-0.2,0.4-0.2
		c0.9,0,2.1,0,2.4,0c0.6,0,2.2,0,2.8,0c1.1,0,2.4,0.1,3.4,0.7c0.5,0.3,1.3,1.2,1.3,2.4c0,1.3-0.7,2.4-2.5,3.8
		c1.6,1.9,2.8,3.5,3.9,4.6c1,1,1.6,1.1,1.9,1.1c0.2,0,0.3,0,0.4,0c0.1,0,0.2,0.1,0.2,0.2c0,0.1-0.1,0.2-0.3,0.2h-1.7
		c-1,0-1.5-0.1-1.9-0.3c-0.8-0.4-1.4-1.2-2.4-2.5c-0.7-0.9-1.5-2.1-1.7-2.3c-0.1-0.1-0.2-0.1-0.3-0.1l-1.6,0c-0.1,0-0.1,0-0.1,0.1
		v0.2c0,1.6,0,2.9,0.1,3.7c0.1,0.5,0.1,0.8,0.7,0.9c0.3,0,0.6,0.1,0.9,0.1c0.1,0,0.2,0.1,0.2,0.2c0,0.1-0.1,0.2-0.4,0.2
		c-1,0-2.5-0.1-2.8-0.1c-0.3,0-1.5,0.1-2.2,0.1c-0.2,0-0.3-0.1-0.3-0.2c0-0.1,0.1-0.2,0.3-0.2c0.3,0,0.5,0,0.6-0.1
		c0.4-0.1,0.5-0.4,0.5-0.9c0.1-0.7,0.1-2.1,0.1-3.7V11.2z M175.5,12.5c0,0.2,0,0.2,0.2,0.3c0.4,0.1,0.9,0.2,1.4,0.2
		c0.7,0,0.9-0.1,1.3-0.3c0.5-0.4,1.2-1.1,1.2-2.5c0-2.4-1.7-3.1-2.7-3.1c-0.4,0-0.9,0-1.1,0.1c-0.1,0-0.2,0.1-0.2,0.2V12.5z"/>
	<path d="M191.1,19c-0.3-0.1-0.4-0.2-0.4-0.7c0-1.1,0.1-2.3,0.1-2.6c0-0.3,0.1-0.5,0.2-0.5c0.2,0,0.2,0.2,0.2,0.3
		c0,0.3,0.1,0.7,0.2,1c0.4,1.5,1.6,2,2.9,2c1.8,0,2.7-1.2,2.7-2.3c0-1-0.3-1.9-2-3.2l-0.9-0.7c-2.2-1.7-3-3.2-3-4.8
		c0-2.2,1.9-3.8,4.7-3.8c1.3,0,2.2,0.2,2.7,0.3c0.2,0,0.3,0.1,0.3,0.2c0,0.3-0.1,0.8-0.1,2.4c0,0.4-0.1,0.6-0.2,0.6
		c-0.1,0-0.2-0.1-0.2-0.4c0-0.2-0.1-0.8-0.5-1.3c-0.3-0.4-0.9-1-2.2-1c-1.5,0-2.4,0.9-2.4,2.1c0,0.9,0.5,1.6,2.1,2.9l0.6,0.4
		c2.4,1.8,3.3,3.2,3.3,5.2c0,1.2-0.4,2.6-1.9,3.5c-1,0.6-2.1,0.8-3.2,0.8C192.9,19.5,192,19.3,191.1,19z"/>
	<path d="M202.5,11.2c0-2.6,0-3.1,0-3.6c0-0.6-0.2-0.8-0.6-0.9c-0.2-0.1-0.4-0.1-0.6-0.1c-0.2,0-0.3,0-0.3-0.2
		c0-0.1,0.1-0.1,0.4-0.1c0.7,0,1.9,0,2.4,0c0.4,0,1.6,0,2.3,0c0.2,0,0.4,0,0.4,0.1c0,0.2-0.1,0.2-0.3,0.2s-0.3,0-0.5,0.1
		c-0.5,0.1-0.6,0.3-0.7,0.9c0,0.5,0,1,0,3.6v3c0,1.7,0,3,0.1,3.8c0.1,0.5,0.2,0.7,0.7,0.8c0.2,0,0.6,0.1,0.9,0.1
		c0.2,0,0.3,0.1,0.3,0.2c0,0.1-0.1,0.2-0.3,0.2c-1.2,0-2.4-0.1-2.9-0.1c-0.4,0-1.6,0.1-2.3,0.1c-0.2,0-0.3-0.1-0.3-0.2
		c0-0.1,0.1-0.2,0.3-0.2c0.3,0,0.5,0,0.6-0.1c0.4-0.1,0.5-0.3,0.5-0.8c0.1-0.7,0.1-2.1,0.1-3.7V11.2z"/>
	<path d="M210.1,11.2c0-2.6,0-3.1,0-3.6c0-0.6-0.2-0.8-0.8-0.9c-0.1,0-0.4-0.1-0.7-0.1c-0.2,0-0.3-0.1-0.3-0.2s0.1-0.2,0.4-0.2
		c0.9,0,2.1,0,2.4,0c0.6,0,2.2,0,2.8,0c1.1,0,2.4,0.1,3.4,0.7c0.5,0.3,1.3,1.2,1.3,2.4c0,1.3-0.7,2.4-2.5,3.8
		c1.6,1.9,2.8,3.5,3.9,4.6c1,1,1.6,1.1,1.9,1.1c0.2,0,0.3,0,0.4,0c0.1,0,0.2,0.1,0.2,0.2c0,0.1-0.1,0.2-0.3,0.2h-1.7
		c-1,0-1.5-0.1-1.9-0.3c-0.8-0.4-1.4-1.2-2.4-2.5c-0.7-0.9-1.5-2.1-1.7-2.3c-0.1-0.1-0.2-0.1-0.3-0.1l-1.6,0c-0.1,0-0.1,0-0.1,0.1
		v0.2c0,1.6,0,2.9,0.1,3.7c0.1,0.5,0.1,0.8,0.7,0.9c0.3,0,0.6,0.1,0.9,0.1c0.1,0,0.2,0.1,0.2,0.2c0,0.1-0.1,0.2-0.4,0.2
		c-1,0-2.5-0.1-2.8-0.1c-0.3,0-1.5,0.1-2.2,0.1c-0.2,0-0.3-0.1-0.3-0.2c0-0.1,0.1-0.2,0.3-0.2c0.3,0,0.5,0,0.6-0.1
		c0.4-0.1,0.5-0.4,0.5-0.9c0.1-0.7,0.1-2.1,0.1-3.7V11.2z M212.4,12.5c0,0.2,0,0.2,0.2,0.3c0.4,0.1,0.9,0.2,1.4,0.2
		c0.7,0,0.9-0.1,1.3-0.3c0.5-0.4,1.2-1.1,1.2-2.5c0-2.4-1.7-3.1-2.7-3.1c-0.4,0-0.9,0-1.1,0.1c-0.1,0-0.2,0.1-0.2,0.2V12.5z"/>
	<path d="M223.3,11.2c0-2.6,0-3.1,0-3.6c0-0.6-0.2-0.8-0.8-0.9c-0.1,0-0.4-0.1-0.7-0.1c-0.2,0-0.3-0.1-0.3-0.2s0.1-0.2,0.4-0.2
		c0.9,0,2.1,0,2.6,0c0.6,0,4.5,0,4.8,0c0.3,0,0.6-0.1,0.7-0.1c0.1,0,0.2-0.1,0.3-0.1c0.1,0,0.1,0.1,0.1,0.2c0,0.1-0.1,0.3-0.1,1.1
		c0,0.2-0.1,0.9-0.1,1.1c0,0.1-0.1,0.3-0.2,0.3c-0.1,0-0.1-0.1-0.1-0.2c0-0.1,0-0.4-0.1-0.6c-0.1-0.3-0.3-0.5-1.2-0.6
		c-0.3,0-2.4-0.1-2.8-0.1c-0.1,0-0.1,0.1-0.1,0.2v4.2c0,0.1,0,0.2,0.1,0.2c0.4,0,2.7,0,3.1,0c0.4,0,0.7-0.1,0.8-0.3
		c0.1-0.1,0.2-0.2,0.3-0.2c0.1,0,0.1,0.1,0.1,0.2s0,0.4-0.1,1.3c0,0.3-0.1,1-0.1,1.2c0,0.1,0,0.4-0.2,0.4c-0.1,0-0.2-0.1-0.2-0.1
		c0-0.2,0-0.4-0.1-0.6c-0.1-0.3-0.3-0.6-1-0.7c-0.3,0-2.3-0.1-2.8-0.1c-0.1,0-0.1,0.1-0.1,0.2v1.4c0,0.6,0,2,0,2.5
		c0,1.2,0.6,1.4,2.4,1.4c0.5,0,1.2,0,1.7-0.2c0.4-0.2,0.6-0.6,0.8-1.3c0-0.2,0.1-0.3,0.2-0.3c0.1,0,0.2,0.2,0.2,0.4
		c0,0.4-0.1,1.6-0.2,1.9c-0.1,0.4-0.3,0.4-0.9,0.4c-1.3,0-2.4,0-3.3-0.1c-0.9,0-1.5,0-2.1,0c-0.2,0-0.6,0-1,0c-0.4,0-0.9,0-1.2,0
		c-0.2,0-0.3-0.1-0.3-0.2c0-0.1,0.1-0.2,0.3-0.2c0.3,0,0.5,0,0.6-0.1c0.4-0.1,0.5-0.4,0.5-0.9c0.1-0.7,0.1-2.1,0.1-3.7V11.2z"/>
	<path d="M236.3,14.2c0,2.2,0,3.3,0.4,3.6c0.3,0.3,1,0.4,2.4,0.4c0.9,0,1.6,0,2.1-0.5c0.2-0.2,0.4-0.7,0.4-1c0-0.2,0.1-0.3,0.2-0.3
		c0.1,0,0.2,0.2,0.2,0.4c0,0.2-0.1,1.5-0.3,2c-0.1,0.4-0.2,0.5-1.1,0.5c-1.3,0-2.3,0-3.2-0.1c-0.9,0-1.6,0-2.4,0c-0.2,0-0.6,0-1,0
		c-0.4,0-0.9,0-1.2,0c-0.2,0-0.3-0.1-0.3-0.2c0-0.1,0.1-0.2,0.3-0.2c0.3,0,0.5,0,0.6-0.1c0.4-0.1,0.5-0.4,0.5-0.9
		c0.1-0.7,0.1-2.1,0.1-3.7v-3c0-2.6,0-3.1,0-3.6c0-0.6-0.2-0.8-0.8-0.9c-0.1,0-0.4-0.1-0.6-0.1c-0.2,0-0.3-0.1-0.3-0.2
		s0.1-0.2,0.4-0.2c0.8,0,2,0,2.4,0c0.4,0,1.9,0,2.6,0c0.3,0,0.4,0,0.4,0.2s-0.1,0.2-0.3,0.2c-0.2,0-0.5,0-0.7,0.1
		c-0.5,0.1-0.6,0.3-0.7,0.9c0,0.5,0,1,0,3.6V14.2z"/>
	<path d="M252.7,10.7h0.1c0.7-0.7,3.6-3.8,4.2-4.4c0.6-0.7,1-1.2,1-1.5c0-0.2-0.1-0.4-0.3-0.4c-0.2,0-0.3-0.1-0.3-0.2
		c0-0.1,0.1-0.2,0.3-0.2c0.4,0,1.5,0.1,2.1,0.1c0.6,0,1.7-0.1,2.4-0.1c0.2,0,0.3,0,0.3,0.2s-0.1,0.2-0.3,0.2c-0.3,0-0.8,0.1-1.2,0.2
		c-0.6,0.2-1.3,0.7-2.2,1.5c-0.6,0.6-3.7,3.6-4.4,4.4c0.7,0.9,4.7,5.2,5.5,6c0.9,0.8,1.8,1.8,2.9,2.2c0.6,0.2,1,0.3,1.3,0.3
		c0.1,0,0.3,0,0.3,0.2c0,0.1-0.1,0.2-0.5,0.2h-1.8c-0.6,0-1,0-1.4,0c-1.1-0.1-1.6-0.5-2.5-1.3c-0.9-0.8-4.9-5.5-5.3-6l-0.2-0.3h-0.1
		v1.8c0,1.9,0,3.5,0.1,4.3c0,0.6,0.2,1,0.7,1.1c0.3,0,0.7,0.1,1,0.1c0.2,0,0.3,0.1,0.3,0.2c0,0.1-0.2,0.2-0.4,0.2
		c-1.1,0-2.4-0.1-2.9-0.1c-0.5,0-1.7,0.1-2.5,0.1c-0.3,0-0.4-0.1-0.4-0.2c0-0.1,0.1-0.2,0.3-0.2c0.3,0,0.5,0,0.7-0.1
		c0.4-0.1,0.5-0.5,0.6-1.1c0.1-0.8,0.1-2.4,0.1-4.3V9.8c0-3.1,0-3.6,0-4.3c0-0.7-0.2-1-0.9-1.2c-0.2,0-0.5-0.1-0.8-0.1
		c-0.2,0-0.3,0-0.3-0.2s0.1-0.2,0.4-0.2c1.1,0,2.3,0.1,2.8,0.1c0.5,0,1.8-0.1,2.4-0.1c0.3,0,0.4,0,0.4,0.2s-0.1,0.2-0.3,0.2
		c-0.2,0-0.3,0-0.6,0.1c-0.5,0.1-0.7,0.4-0.7,1.2c0,0.6,0,1.2,0,4.3V10.7z"/>
	<path d="M265.3,14.9c-0.1,0-0.1,0-0.2,0.1l-1,2.3c-0.2,0.4-0.3,0.8-0.3,1.1c0,0.3,0.2,0.5,0.7,0.5h0.3c0.2,0,0.3,0.1,0.3,0.2
		c0,0.1-0.1,0.2-0.3,0.2c-0.6,0-1.4-0.1-2-0.1c-0.2,0-1.1,0.1-2.1,0.1c-0.2,0-0.3,0-0.3-0.2c0-0.1,0.1-0.2,0.2-0.2
		c0.2,0,0.4,0,0.5,0c0.8-0.1,1.1-0.6,1.5-1.5l4.6-10.7c0.2-0.5,0.3-0.7,0.5-0.7c0.3,0,0.3,0.2,0.5,0.5c0.4,0.9,3.4,7.9,4.5,10.5
		c0.7,1.6,1.2,1.8,1.5,1.8c0.3,0,0.5,0.1,0.7,0.1c0.2,0,0.2,0.1,0.2,0.2c0,0.1-0.1,0.2-0.8,0.2c-0.6,0-1.9,0-3.4,0
		c-0.3,0-0.5,0-0.5-0.1c0-0.1,0-0.2,0.2-0.2c0.1,0,0.2-0.2,0.2-0.4l-1.4-3.5c0-0.1-0.1-0.1-0.2-0.1H265.3z M269.1,13.9
		c0.1,0,0.1,0,0.1-0.1l-1.7-4.3c0-0.1,0-0.2-0.1-0.2c-0.1,0-0.1,0.1-0.1,0.2l-1.7,4.3c0,0.1,0,0.1,0.1,0.1H269.1z"/>
	<path d="M276.6,11.2c0-2.6,0-3.1,0-3.6c0-0.6-0.2-0.8-0.8-0.9c-0.1,0-0.4-0.1-0.7-0.1c-0.2,0-0.3-0.1-0.3-0.2s0.1-0.2,0.4-0.2
		c0.9,0,2.1,0,2.4,0c0.6,0,2.2,0,2.8,0c1.1,0,2.4,0.1,3.4,0.7c0.5,0.3,1.3,1.2,1.3,2.4c0,1.3-0.7,2.4-2.5,3.8
		c1.6,1.9,2.8,3.5,3.9,4.6c1,1,1.6,1.1,1.9,1.1c0.2,0,0.3,0,0.4,0c0.1,0,0.2,0.1,0.2,0.2c0,0.1-0.1,0.2-0.3,0.2H287
		c-1,0-1.5-0.1-1.9-0.3c-0.8-0.4-1.4-1.2-2.4-2.5c-0.7-0.9-1.5-2.1-1.7-2.3c-0.1-0.1-0.2-0.1-0.3-0.1l-1.6,0c-0.1,0-0.1,0-0.1,0.1
		v0.2c0,1.6,0,2.9,0.1,3.7c0.1,0.5,0.1,0.8,0.7,0.9c0.3,0,0.6,0.1,0.9,0.1c0.1,0,0.2,0.1,0.2,0.2c0,0.1-0.1,0.2-0.4,0.2
		c-1,0-2.5-0.1-2.8-0.1c-0.3,0-1.5,0.1-2.2,0.1c-0.2,0-0.3-0.1-0.3-0.2c0-0.1,0.1-0.2,0.3-0.2c0.3,0,0.5,0,0.6-0.1
		c0.4-0.1,0.5-0.4,0.5-0.9c0.1-0.7,0.1-2.1,0.1-3.7V11.2z M278.9,12.5c0,0.2,0,0.2,0.2,0.3c0.4,0.1,0.9,0.2,1.4,0.2
		c0.7,0,0.9-0.1,1.3-0.3c0.5-0.4,1.2-1.1,1.2-2.5c0-2.4-1.7-3.1-2.7-3.1c-0.4,0-0.9,0-1,0.1c-0.1,0-0.2,0.1-0.2,0.2V12.5z"/>
	<path d="M290.6,14.9c-0.1,0-0.1,0-0.2,0.1l-1,2.3c-0.2,0.4-0.3,0.8-0.3,1.1c0,0.3,0.2,0.5,0.7,0.5h0.3c0.2,0,0.3,0.1,0.3,0.2
		c0,0.1-0.1,0.2-0.3,0.2c-0.6,0-1.4-0.1-2-0.1c-0.2,0-1.1,0.1-2.1,0.1c-0.2,0-0.3,0-0.3-0.2c0-0.1,0.1-0.2,0.2-0.2
		c0.2,0,0.4,0,0.5,0c0.8-0.1,1.1-0.6,1.5-1.5l4.6-10.7c0.2-0.5,0.3-0.7,0.5-0.7c0.3,0,0.3,0.2,0.5,0.5c0.4,0.9,3.4,7.9,4.5,10.5
		c0.7,1.6,1.2,1.8,1.5,1.8c0.3,0,0.5,0.1,0.7,0.1c0.2,0,0.2,0.1,0.2,0.2c0,0.1-0.1,0.2-0.8,0.2c-0.6,0-1.9,0-3.4,0
		c-0.3,0-0.5,0-0.5-0.1c0-0.1,0-0.2,0.2-0.2c0.1,0,0.2-0.2,0.2-0.4L295,15c0-0.1-0.1-0.1-0.2-0.1H290.6z M294.4,13.9
		c0.1,0,0.1,0,0.1-0.1l-1.7-4.3c0-0.1,0-0.2-0.1-0.2c-0.1,0-0.1,0.1-0.1,0.2l-1.7,4.3c0,0.1,0,0.1,0.1,0.1H294.4z"/>
	<path d="M304.3,11.9L304.3,11.9c0.7-0.6,3.3-3.2,3.8-3.8c0.5-0.6,0.9-1,0.9-1.3c0-0.2-0.1-0.3-0.2-0.3c-0.2,0-0.2-0.1-0.2-0.2
		c0-0.1,0.1-0.2,0.3-0.2c0.4,0,1.4,0,1.8,0c0.5,0,1.5,0,2.1,0c0.2,0,0.3,0,0.3,0.2s-0.1,0.2-0.3,0.2c-0.3,0-0.7,0.1-1,0.2
		c-0.6,0.2-1.1,0.6-1.9,1.3c-0.6,0.5-3.2,3-3.8,3.7c0.6,0.8,4.1,4.4,4.8,5.1c0.8,0.7,1.5,1.5,2.4,1.8c0.5,0.2,0.9,0.2,1.1,0.2
		c0.1,0,0.2,0.1,0.2,0.2c0,0.1-0.1,0.2-0.4,0.2h-1.6c-0.5,0-0.8,0-1.2,0c-1-0.1-1.5-0.4-2.3-1.1c-0.8-0.7-4.2-4.6-4.6-5.2l-0.2-0.2
		h-0.1v1.6c0,1.6,0,2.9,0,3.7c0,0.5,0.2,0.8,0.6,0.9c0.2,0,0.6,0.1,0.9,0.1c0.1,0,0.2,0.1,0.2,0.2c0,0.1-0.1,0.2-0.3,0.2
		c-1,0-2.3-0.1-2.7-0.1c-0.4,0-1.5,0.1-2.2,0.1c-0.2,0-0.3-0.1-0.3-0.2c0-0.1,0.1-0.2,0.3-0.2c0.3,0,0.5,0,0.6-0.1
		c0.4-0.1,0.5-0.4,0.5-0.9c0.1-0.7,0.1-2.1,0.1-3.7v-3c0-2.6,0-3.1,0-3.6c0-0.6-0.2-0.8-0.8-0.9c-0.1,0-0.4-0.1-0.7-0.1
		c-0.2,0-0.3-0.1-0.3-0.2s0.1-0.2,0.4-0.2c0.9,0,2.1,0,2.5,0c0.4,0,1.7,0,2.3,0c0.3,0,0.4,0,0.4,0.2s-0.1,0.2-0.2,0.2
		c-0.2,0-0.3,0-0.5,0.1c-0.5,0.1-0.6,0.3-0.7,0.9c0,0.5,0,1,0,3.6V11.9z"/>
	<path d="M315.7,14.9c-0.1,0-0.1,0-0.2,0.1l-1,2.3c-0.2,0.4-0.3,0.8-0.3,1.1c0,0.3,0.2,0.5,0.7,0.5h0.3c0.2,0,0.3,0.1,0.3,0.2
		c0,0.1-0.1,0.2-0.3,0.2c-0.6,0-1.4-0.1-2-0.1c-0.2,0-1.1,0.1-2.1,0.1c-0.2,0-0.3,0-0.3-0.2c0-0.1,0.1-0.2,0.2-0.2
		c0.2,0,0.4,0,0.5,0c0.8-0.1,1.1-0.6,1.5-1.5l4.6-10.7c0.2-0.5,0.3-0.7,0.5-0.7c0.3,0,0.3,0.2,0.5,0.5c0.4,0.9,3.4,7.9,4.5,10.5
		c0.7,1.6,1.2,1.8,1.5,1.8c0.3,0,0.5,0.1,0.7,0.1c0.2,0,0.2,0.1,0.2,0.2c0,0.1-0.1,0.2-0.8,0.2c-0.6,0-1.9,0-3.4,0
		c-0.3,0-0.5,0-0.5-0.1c0-0.1,0-0.2,0.2-0.2c0.1,0,0.2-0.2,0.2-0.4l-1.4-3.5c0-0.1-0.1-0.1-0.2-0.1H315.7z M319.5,13.9
		c0.1,0,0.1,0,0.1-0.1l-1.7-4.3c0-0.1,0-0.2-0.1-0.2c-0.1,0-0.1,0.1-0.1,0.2l-1.7,4.3c0,0.1,0,0.1,0.1,0.1H319.5z"/>
	<path d="M331.7,18.7c-0.5,0.3-1,0.5-1.6,0.6l-1.6,1.2c1.5,0.1,2.4,0.7,2.4,1.6c0,0.8-0.8,2.2-3.7,2.2c-0.2,0-0.3-0.1-0.3-0.2
		c0-0.2,0.2-0.3,0.5-0.3c0.7,0,1.7-0.5,1.7-1.4c0-0.5-0.2-1.3-1.6-1.5c-0.3,0-0.4-0.1-0.4-0.2s0.1-0.1,0.3-0.3l1.5-1.1h-0.1
		c-1,0-2.1-0.1-2.9-0.4c-0.3-0.1-0.3-0.2-0.3-0.6c0-0.9,0.1-2,0.1-2.3c0-0.3,0.1-0.4,0.2-0.4c0.2,0,0.2,0.2,0.2,0.3
		c0,0.2,0.1,0.6,0.2,0.9c0.4,1.3,1.7,1.7,2.8,1.7c1.5,0,2.5-1,2.5-2.2c0-0.7-0.2-1.5-1.8-2.4l-1-0.6c-2.1-1.2-2.8-2.4-2.8-3.9
		c0-2.1,2-3.5,4.5-3.5c1.2,0,2.1,0.2,2.5,0.3c0.2,0,0.2,0.1,0.2,0.2c0,0.2-0.1,0.7-0.1,2.1c0,0.4-0.1,0.5-0.2,0.5
		c-0.1,0-0.2-0.1-0.2-0.3c0-0.2-0.1-0.7-0.5-1.1c-0.3-0.3-0.8-0.8-2-0.8c-1.3,0-2.4,0.7-2.4,1.8c0,0.8,0.3,1.4,1.9,2.3l0.7,0.4
		c2.3,1.3,3.1,2.6,3.1,4.2C333.5,16.8,333,17.8,331.7,18.7z"/>
</g>
<g>
	<path d="M202.8,3.7c0-0.5,0.4-1.2,1.2-1.2c0.7,0,1.2,0.5,1.2,1.2s-0.5,1.3-1.3,1.3C203.2,4.9,202.8,4.2,202.8,3.7z"/>
</g>
<g>
	<path d="M158.3,38.3c0-3.5,0-4.1,0-4.8c0-0.8-0.2-1.1-1-1.3c-0.2,0-0.6-0.1-0.9-0.1c-0.3,0-0.4,0-0.4-0.2s0.2-0.2,0.5-0.2
		c1.2,0,2.6,0.1,3.3,0.1c0.9,0,2.3-0.1,3.3-0.1c2.9,0,3.9,1,4.2,1.3c0.5,0.5,1.1,1.5,1.1,2.7c0,3.2-2.4,5.5-5.6,5.5
		c-0.1,0-0.4,0-0.5,0c-0.1,0-0.3,0-0.3-0.2c0-0.2,0.2-0.3,0.6-0.3c1.3,0,3.1-1.4,3.1-3.8c0-0.8-0.1-2.3-1.3-3.4
		c-0.8-0.8-1.8-0.9-2.3-0.9c-0.3,0-0.7,0-0.9,0.1c-0.1,0-0.2,0.2-0.2,0.4v9.1c0,2.1,0,3.9,0.1,4.9c0.1,0.6,0.2,1.1,0.9,1.2
		c0.3,0,0.8,0.1,1.2,0.1c0.3,0,0.4,0.1,0.4,0.2c0,0.2-0.2,0.2-0.4,0.2c-1.5,0-2.9-0.1-3.5-0.1c-0.5,0-2,0.1-2.9,0.1
		c-0.3,0-0.5-0.1-0.5-0.2c0-0.1,0.1-0.2,0.4-0.2c0.3,0,0.6,0,0.8-0.1c0.5-0.1,0.6-0.6,0.7-1.3c0.1-1,0.1-2.8,0.1-4.9V38.3z"/>
	<path d="M178.1,48.7c-0.4-0.2-0.4-0.3-0.4-0.8c0-1.3,0.1-2.6,0.1-3c0-0.3,0.1-0.6,0.3-0.6c0.2,0,0.2,0.2,0.2,0.4
		c0,0.3,0.1,0.8,0.2,1.2c0.5,1.7,1.8,2.3,3.3,2.3c2.1,0,3.1-1.4,3.1-2.6c0-1.1-0.3-2.2-2.2-3.7l-1-0.8c-2.5-2-3.4-3.6-3.4-5.4
		c0-2.5,2.1-4.3,5.3-4.3c1.5,0,2.4,0.2,3,0.4c0.2,0,0.3,0.1,0.3,0.3c0,0.3-0.1,1-0.1,2.7c0,0.5-0.1,0.7-0.3,0.7
		c-0.2,0-0.2-0.1-0.2-0.4c0-0.2-0.1-0.9-0.6-1.5c-0.3-0.4-1-1.1-2.5-1.1c-1.7,0-2.7,1-2.7,2.3c0,1,0.5,1.8,2.4,3.3l0.6,0.5
		c2.8,2.1,3.7,3.7,3.7,5.8c0,1.3-0.5,2.9-2.1,4c-1.1,0.7-2.4,0.9-3.6,0.9C180.1,49.2,179.1,49.1,178.1,48.7z"/>
	<path d="M198.6,38.3c0-3.5,0-4.1,0-4.8c0-0.8-0.3-1.2-0.8-1.3c-0.3-0.1-0.5-0.1-0.8-0.1c-0.2,0-0.4,0-0.4-0.2
		c0-0.1,0.2-0.2,0.5-0.2c0.9,0,2.3,0.1,3,0.1c0.6,0,1.9-0.1,2.8-0.1c0.3,0,0.5,0,0.5,0.2c0,0.2-0.1,0.2-0.4,0.2
		c-0.2,0-0.4,0-0.7,0.1c-0.6,0.1-0.8,0.5-0.8,1.3c0,0.7,0,1.4,0,4.8v4c0,2.2,0,4,0.1,5c0.1,0.6,0.2,1,0.9,1.1c0.3,0,0.8,0.1,1.2,0.1
		c0.3,0,0.4,0.1,0.4,0.2c0,0.2-0.2,0.2-0.4,0.2c-1.5,0-2.9-0.1-3.6-0.1c-0.5,0-2,0.1-2.9,0.1c-0.3,0-0.5-0.1-0.5-0.2
		c0-0.1,0.1-0.2,0.4-0.2c0.3,0,0.6,0,0.8-0.1c0.5-0.1,0.6-0.5,0.7-1.1c0.1-1,0.1-2.8,0.1-5V38.3z M198.7,28.6c0-0.6,0.4-1.3,1.3-1.3
		c0.7,0,1.3,0.5,1.3,1.2c0,0.8-0.5,1.4-1.3,1.4C199.1,29.9,198.7,29.2,198.7,28.6z"/>
	<path d="M217.7,39.3h0.1c0.8-0.8,4.1-4.2,4.8-5c0.6-0.8,1.1-1.3,1.1-1.7c0-0.3-0.1-0.4-0.3-0.5c-0.2,0-0.3-0.1-0.3-0.2
		c0-0.2,0.1-0.2,0.4-0.2c0.5,0,1.7,0.1,2.3,0.1c0.7,0,2-0.1,2.7-0.1c0.2,0,0.4,0,0.4,0.2s-0.1,0.2-0.3,0.2c-0.3,0-0.9,0.1-1.3,0.3
		c-0.7,0.3-1.5,0.8-2.5,1.7c-0.7,0.7-4.2,4.1-4.9,4.9c0.8,1.1,5.3,5.9,6.2,6.7c1,1,2,2,3.3,2.5c0.7,0.3,1.1,0.3,1.4,0.3
		c0.2,0,0.3,0,0.3,0.2c0,0.2-0.1,0.2-0.5,0.2h-2c-0.7,0-1.1,0-1.6,0c-1.2-0.1-1.8-0.6-2.8-1.5c-1-0.9-5.5-6.2-6-6.8l-0.3-0.3h-0.1
		v2.1c0,2.1,0,3.9,0.1,4.9c0,0.6,0.3,1.1,0.8,1.2c0.3,0,0.8,0.1,1.1,0.1c0.2,0,0.3,0.1,0.3,0.2c0,0.2-0.2,0.2-0.4,0.2
		c-1.3,0-2.7-0.1-3.3-0.1c-0.5,0-2,0.1-2.9,0.1c-0.3,0-0.5-0.1-0.5-0.2c0-0.1,0.1-0.2,0.4-0.2c0.3,0,0.6,0,0.8-0.1
		c0.5-0.1,0.6-0.6,0.7-1.3c0.1-1,0.1-2.8,0.1-4.9v-4c0-3.5,0-4.1,0-4.8c0-0.8-0.2-1.1-1-1.3c-0.2,0-0.6-0.1-0.9-0.1
		c-0.3,0-0.4,0-0.4-0.2s0.2-0.2,0.5-0.2c1.2,0,2.6,0.1,3.2,0.1c0.5,0,2-0.1,2.8-0.1c0.3,0,0.5,0,0.5,0.2s-0.1,0.2-0.3,0.2
		c-0.2,0-0.4,0-0.6,0.1c-0.6,0.1-0.8,0.5-0.8,1.3c0,0.7,0,1.4,0,4.8V39.3z"/>
	<path d="M236,40.3c0-3.9,2.6-8.9,9.4-8.9c5.7,0,9.2,3.3,9.2,8.5c0,5.2-3.6,9.4-9.4,9.4C238.6,49.2,236,44.3,236,40.3z M251.4,40.7
		c0-5.1-2.9-8.3-6.7-8.3c-2.6,0-5.6,1.5-5.6,7.1c0,4.7,2.6,8.5,7,8.5C247.7,48.1,251.4,47.3,251.4,40.7z"/>
	<path d="M268.2,42.3c0,2.9,0,4.5,0.5,4.9c0.4,0.3,1,0.5,2.8,0.5c1.2,0,2.1,0,2.7-0.6c0.3-0.3,0.5-0.9,0.6-1.4
		c0-0.2,0.1-0.3,0.3-0.3c0.2,0,0.2,0.1,0.2,0.4c0,0.3-0.2,2-0.3,2.6c-0.1,0.5-0.3,0.6-1.4,0.6c-1.6,0-2.8,0-3.9-0.1
		c-1,0-1.8-0.1-2.8-0.1c-0.2,0-0.8,0-1.3,0c-0.5,0-1.1,0-1.6,0c-0.3,0-0.5-0.1-0.5-0.2c0-0.1,0.1-0.2,0.4-0.2c0.3,0,0.6,0,0.8-0.1
		c0.5-0.1,0.6-0.6,0.7-1.3c0.1-1,0.1-2.8,0.1-4.9v-4c0-3.5,0-4.1,0-4.8c0-0.8-0.2-1.1-1-1.3c-0.2,0-0.5-0.1-0.8-0.1
		c-0.3,0-0.4,0-0.4-0.2s0.2-0.2,0.5-0.2c1.1,0,2.5,0.1,3.1,0.1c0.5,0,2.2-0.1,3.1-0.1c0.3,0,0.5,0,0.5,0.2s-0.1,0.2-0.4,0.2
		c-0.3,0-0.6,0-0.9,0.1c-0.6,0.1-0.8,0.5-0.8,1.3c0,0.7,0,1.4,0,4.8V42.3z"/>
	<path d="M282.5,40.3c0-3.9,2.6-8.9,9.4-8.9c5.7,0,9.2,3.3,9.2,8.5c0,5.2-3.6,9.4-9.4,9.4C285.2,49.2,282.5,44.3,282.5,40.3z
		 M298,40.7c0-5.1-2.9-8.3-6.7-8.3c-2.6,0-5.6,1.5-5.6,7.1c0,4.7,2.6,8.5,7,8.5C294.3,48.1,298,47.3,298,40.7z"/>
	<path d="M311.9,38.3c0-3.5,0-4.1,0-4.8c0-0.8-0.2-1.1-1-1.3c-0.2,0-0.6-0.1-0.9-0.1c-0.3,0-0.4,0-0.4-0.2s0.2-0.2,0.5-0.2
		c1.2,0,2.6,0.1,3.2,0.1c0.5,0,2-0.1,2.9-0.1c0.3,0,0.5,0,0.5,0.2s-0.1,0.2-0.4,0.2c-0.3,0-0.4,0-0.7,0.1c-0.6,0.1-0.8,0.5-0.8,1.3
		c0,0.7,0,1.4,0,4.8v4.2c0,1,0.1,2.1,0.1,3.2c0,1.3-0.1,2.8-0.5,4c-0.5,1.4-1.7,3-3.9,4.3c-0.3,0.2-0.7,0.4-1.1,0.6
		c-0.2,0.1-0.3,0.1-0.5,0.1c-0.1,0-0.2-0.1-0.2-0.2s0.1-0.2,0.5-0.4c0.3-0.2,0.6-0.4,1.1-0.9c1.7-1.8,1.7-4,1.7-8.5V38.3z"/>
	<path d="M327.3,38.3c0-3.5,0-4.1,0-4.8c0-0.8-0.3-1.2-0.8-1.3c-0.3-0.1-0.5-0.1-0.8-0.1c-0.2,0-0.4,0-0.4-0.2
		c0-0.1,0.2-0.2,0.5-0.2c0.9,0,2.3,0.1,3,0.1c0.6,0,1.9-0.1,2.8-0.1c0.3,0,0.5,0,0.5,0.2c0,0.2-0.1,0.2-0.4,0.2
		c-0.2,0-0.4,0-0.7,0.1c-0.6,0.1-0.8,0.5-0.8,1.3c0,0.7,0,1.4,0,4.8v4c0,2.2,0,4,0.1,5c0.1,0.6,0.2,1,0.9,1.1c0.3,0,0.8,0.1,1.2,0.1
		c0.3,0,0.4,0.1,0.4,0.2c0,0.2-0.2,0.2-0.4,0.2c-1.5,0-2.9-0.1-3.6-0.1c-0.5,0-2,0.1-2.9,0.1c-0.3,0-0.5-0.1-0.5-0.2
		c0-0.1,0.1-0.2,0.4-0.2c0.3,0,0.6,0,0.8-0.1c0.5-0.1,0.6-0.5,0.7-1.1c0.1-1,0.1-2.8,0.1-5V38.3z M327.5,28.6c0-0.6,0.4-1.3,1.3-1.3
		c0.7,0,1.3,0.5,1.3,1.2c0,0.8-0.5,1.4-1.3,1.4C327.9,29.9,327.5,29.2,327.5,28.6z"/>
</g>
<g>
	<path d="M157.2,79.8c-0.4-0.2-0.4-0.3-0.4-0.8c0-1.3,0.1-2.6,0.1-3c0-0.3,0.1-0.6,0.3-0.6c0.2,0,0.2,0.2,0.2,0.4
		c0,0.3,0.1,0.8,0.2,1.2c0.5,1.7,1.8,2.3,3.3,2.3c2.1,0,3.1-1.4,3.1-2.6c0-1.1-0.3-2.2-2.2-3.7l-1-0.8c-2.5-2-3.4-3.6-3.4-5.4
		c0-2.5,2.1-4.3,5.3-4.3c1.5,0,2.4,0.2,3,0.4c0.2,0,0.3,0.1,0.3,0.3c0,0.3-0.1,1-0.1,2.7c0,0.5-0.1,0.7-0.3,0.7
		c-0.2,0-0.2-0.1-0.2-0.4c0-0.2-0.1-0.9-0.6-1.5c-0.3-0.4-1-1.1-2.5-1.1c-1.7,0-2.7,1-2.7,2.3c0,1,0.5,1.8,2.4,3.3l0.6,0.5
		c2.8,2.1,3.7,3.7,3.7,5.8c0,1.3-0.5,2.9-2.1,4c-1.1,0.7-2.4,0.9-3.6,0.9C159.2,80.4,158.2,80.2,157.2,79.8z"/>
	<path d="M178.7,71.4c0-3.9,2.6-8.9,9.4-8.9c5.7,0,9.2,3.3,9.2,8.5c0,5.2-3.6,9.4-9.4,9.4C181.3,80.4,178.7,75.5,178.7,71.4z
		 M194.1,71.9c0-5.1-2.9-8.3-6.7-8.3c-2.6,0-5.6,1.5-5.6,7.1c0,4.7,2.6,8.5,7,8.5C190.4,79.2,194.1,78.5,194.1,71.9z M184.5,60
		c0-0.4,0.3-1,1-1c0.6,0,1.1,0.4,1.1,1c0,0.6-0.4,1.1-1.1,1.1C184.8,61.1,184.5,60.5,184.5,60z M189.3,60c0-0.5,0.3-1.1,1-1.1
		c0.6,0,1.1,0.4,1.1,1s-0.4,1.1-1.1,1.1C189.6,61.1,189.3,60.5,189.3,60z"/>
	<path d="M218.6,78.7c2.3,0,3.2-0.6,3.6-1.3c0.2-0.4,0.3-0.8,0.4-1.1c0-0.2,0.1-0.4,0.2-0.4c0.2,0,0.2,0.2,0.2,0.7
		c0,0.7-0.3,2.2-0.5,2.8c-0.1,0.4-0.3,0.6-0.7,0.6c-3.8,0-7.6-0.1-12.2-0.1c-0.3,0-0.4-0.1-0.4-0.2c0-0.2,0.1-0.3,0.3-0.7
		c3.2-5,6.6-10.2,9.6-15h-4.5c-1.2,0-2.6,0.1-3.3,0.5c-0.8,0.4-1.2,1.3-1.2,1.8c0,0.3-0.1,0.4-0.3,0.4c-0.2,0-0.2-0.1-0.2-0.4
		c0-0.5,0.3-2.6,0.5-3.3c0-0.3,0.1-0.4,0.3-0.4c0.2,0,0.3,0.1,0.9,0.2c2.2,0.1,3.3,0.1,4.2,0.1h7c0.2,0,0.4,0.1,0.4,0.2
		c0,0.1-0.1,0.3-0.2,0.4c-3.1,5.1-6.6,10.3-9.8,15.2H218.6z"/>
	<path d="M240.2,73.4c0,2.9,0,4.5,0.5,4.9c0.4,0.3,1,0.5,2.8,0.5c1.2,0,2.1,0,2.7-0.6c0.3-0.3,0.5-0.9,0.6-1.4
		c0-0.2,0.1-0.3,0.3-0.3c0.2,0,0.2,0.1,0.2,0.4c0,0.3-0.2,2-0.3,2.6c-0.1,0.5-0.3,0.6-1.4,0.6c-1.6,0-2.8,0-3.9-0.1
		c-1,0-1.8-0.1-2.8-0.1c-0.2,0-0.8,0-1.3,0c-0.5,0-1.1,0-1.6,0c-0.3,0-0.5-0.1-0.5-0.2c0-0.1,0.1-0.2,0.4-0.2c0.3,0,0.6,0,0.8-0.1
		c0.5-0.1,0.6-0.6,0.7-1.3c0.1-1,0.1-2.8,0.1-4.9v-4c0-3.5,0-4.1,0-4.8c0-0.8-0.2-1.1-1-1.3c-0.2,0-0.5-0.1-0.8-0.1
		c-0.3,0-0.4,0-0.4-0.2c0-0.2,0.2-0.2,0.5-0.2c1.1,0,2.5,0.1,3.1,0.1c0.5,0,2.2-0.1,3.1-0.1c0.3,0,0.5,0,0.5,0.2
		c0,0.2-0.1,0.2-0.4,0.2c-0.3,0-0.6,0-0.9,0.1c-0.6,0.1-0.8,0.5-0.8,1.3c0,0.7,0,1.4,0,4.8V73.4z"/>
	<path d="M259.1,69.4c0-3.5,0-4.1,0-4.8c0-0.8-0.2-1.1-1-1.3c-0.2,0-0.6-0.1-0.9-0.1c-0.3,0-0.4,0-0.4-0.2c0-0.2,0.2-0.2,0.5-0.2
		c1.2,0,2.6,0.1,3.3,0.1c0.5,0,2-0.1,2.8-0.1c0.3,0,0.5,0,0.5,0.2c0,0.2-0.1,0.2-0.4,0.2c-0.3,0-0.4,0-0.7,0.1
		c-0.6,0.1-0.8,0.5-0.8,1.3c0,0.7,0,1.4,0,4.8v3.2c0,3.3,0.7,4.7,1.8,5.6c1,0.8,2.1,0.9,2.9,0.9c1,0,2.2-0.3,3.1-1.2
		c1.3-1.3,1.3-3.3,1.3-5.7v-2.9c0-3.5,0-4.1,0-4.8c0-0.8-0.2-1.1-1-1.3c-0.2,0-0.6-0.1-0.8-0.1s-0.4,0-0.4-0.2
		c0-0.2,0.2-0.2,0.5-0.2c1.2,0,2.6,0.1,2.6,0.1c0.3,0,1.7-0.1,2.6-0.1c0.3,0,0.5,0,0.5,0.2c0,0.2-0.1,0.2-0.4,0.2
		c-0.3,0-0.4,0-0.7,0.1c-0.6,0.1-0.8,0.5-0.8,1.3c0,0.7,0,1.4,0,4.8v2.4c0,2.5-0.3,5.2-2.2,6.9c-1.6,1.4-3.3,1.6-4.7,1.6
		c-1.2,0-3.4-0.1-5.1-1.6c-1.2-1-2-2.7-2-6V69.4z M263.1,60c0-0.4,0.3-1,1-1c0.6,0,1.1,0.4,1.1,1c0,0.6-0.4,1.1-1.1,1.1
		C263.3,61.1,263.1,60.5,263.1,60z M267.9,60c0-0.5,0.3-1.1,1-1.1c0.6,0,1.1,0.4,1.1,1s-0.4,1.1-1.1,1.1
		C268.2,61.1,267.9,60.5,267.9,60z"/>
	<path d="M302.8,78.5c0,0.6,0,0.7-0.3,0.8c-1.5,0.8-3.7,1-5.5,1c-5.6,0-10.5-2.6-10.5-8.9c0-3.6,1.9-6.2,4-7.5
		c2.2-1.3,4.2-1.5,6.1-1.5c1.6,0,3.6,0.3,4,0.4c0.5,0.1,1.3,0.2,1.8,0.3c0.3,0,0.3,0.1,0.3,0.3c0,0.3-0.2,0.9-0.2,3.7
		c0,0.4-0.1,0.5-0.2,0.5c-0.2,0-0.2-0.1-0.2-0.3c-0.1-0.5-0.2-1.3-0.8-1.9c-0.7-0.7-2.5-1.8-5.1-1.8c-1.3,0-2.9,0.1-4.5,1.4
		c-1.3,1.1-2.1,2.8-2.1,5.6c0,4.9,3.1,8.6,7.9,8.6c0.6,0,1.4,0,1.9-0.3c0.3-0.2,0.4-0.5,0.4-0.8V76c0-1.1,0-2,0-2.7
		c0-0.8-0.2-1.1-1-1.3c-0.2,0-0.6-0.1-0.9-0.1c-0.2,0-0.3,0-0.3-0.2c0-0.2,0.2-0.2,0.5-0.2c1.2,0,2.6,0.1,3.3,0.1
		c0.7,0,1.9-0.1,2.7-0.1c0.3,0,0.5,0,0.5,0.2c0,0.1-0.1,0.2-0.3,0.2c-0.2,0-0.3,0-0.6,0.1c-0.6,0.1-0.8,0.5-0.9,1.3
		c0,0.7,0,1.6,0,2.7V78.5z M292.9,59.1l0.8-0.6c0.2-0.1,0.2-0.2,0.3-0.2c0.1,0,0.3,0.3,0.5,0.5c0.8,0.9,1.5,1,2.1,1
		c1,0,1.8-0.5,2-0.6c0.7-0.5,0.8-0.8,1-0.8c0.1,0,0.2,0.1,0.2,0.2c0,0.3-0.9,1.3-1.4,1.7c-0.8,0.5-1.3,0.8-2.5,0.8
		c-0.6,0-1.6-0.3-2.3-0.8c-0.3-0.3-0.8-0.7-0.8-0.9C292.7,59.2,292.8,59.1,292.9,59.1z"/>
	<path d="M317.6,69.4c0-3.5,0-4.1,0-4.8c0-0.8-0.2-1.1-1-1.3c-0.2,0-0.6-0.1-0.9-0.1c-0.3,0-0.4,0-0.4-0.2c0-0.2,0.2-0.2,0.5-0.2
		c1.2,0,2.6,0.1,3.3,0.1c0.5,0,2-0.1,2.8-0.1c0.3,0,0.5,0,0.5,0.2c0,0.2-0.1,0.2-0.4,0.2c-0.3,0-0.4,0-0.7,0.1
		c-0.6,0.1-0.8,0.5-0.8,1.3c0,0.7,0,1.4,0,4.8v3.2c0,3.3,0.7,4.7,1.8,5.6c1,0.8,2.1,0.9,2.9,0.9c1,0,2.2-0.3,3.1-1.2
		c1.3-1.3,1.3-3.3,1.3-5.7v-2.9c0-3.5,0-4.1,0-4.8c0-0.8-0.2-1.1-1-1.3c-0.2,0-0.6-0.1-0.8-0.1s-0.4,0-0.4-0.2
		c0-0.2,0.2-0.2,0.5-0.2c1.2,0,2.6,0.1,2.6,0.1c0.3,0,1.7-0.1,2.6-0.1c0.3,0,0.5,0,0.5,0.2c0,0.2-0.1,0.2-0.4,0.2
		c-0.3,0-0.4,0-0.7,0.1c-0.6,0.1-0.8,0.5-0.8,1.3c0,0.7,0,1.4,0,4.8v2.4c0,2.5-0.3,5.2-2.2,6.9c-1.6,1.4-3.3,1.6-4.7,1.6
		c-1.2,0-3.4-0.1-5.1-1.6c-1.2-1-2-2.7-2-6V69.4z M321.5,60c0-0.4,0.3-1,1-1c0.6,0,1.1,0.4,1.1,1c0,0.6-0.4,1.1-1.1,1.1
		C321.8,61.1,321.5,60.5,321.5,60z M326.3,60c0-0.5,0.3-1.1,1-1.1c0.6,0,1.1,0.4,1.1,1s-0.4,1.1-1.1,1.1
		C326.6,61.1,326.3,60.5,326.3,60z"/>
</g>
<g>
	<path d="M158.1,38.3c0-3.5,0-4.1,0-4.8c0-0.8-0.2-1.1-1-1.3c-0.2,0-0.6-0.1-0.9-0.1c-0.3,0-0.4,0-0.4-0.2s0.2-0.2,0.5-0.2
		c1.2,0,2.6,0.1,3.3,0.1c0.9,0,2.3-0.1,3.3-0.1c2.9,0,3.9,1,4.2,1.3c0.5,0.5,1.1,1.5,1.1,2.7c0,3.2-2.4,5.5-5.6,5.5
		c-0.1,0-0.4,0-0.5,0c-0.1,0-0.3,0-0.3-0.2c0-0.2,0.2-0.3,0.6-0.3c1.3,0,3.1-1.4,3.1-3.8c0-0.8-0.1-2.3-1.3-3.4
		c-0.8-0.8-1.8-0.9-2.3-0.9c-0.3,0-0.7,0-0.9,0.1c-0.1,0-0.2,0.2-0.2,0.4v9.1c0,2.1,0,3.9,0.1,4.9c0.1,0.6,0.2,1.1,0.9,1.2
		c0.3,0,0.8,0.1,1.2,0.1c0.3,0,0.4,0.1,0.4,0.2c0,0.2-0.2,0.2-0.4,0.2c-1.5,0-2.9-0.1-3.5-0.1c-0.5,0-2,0.1-2.9,0.1
		c-0.3,0-0.5-0.1-0.5-0.2c0-0.1,0.1-0.2,0.4-0.2c0.3,0,0.6,0,0.8-0.1c0.5-0.1,0.6-0.6,0.7-1.3c0.1-1,0.1-2.8,0.1-4.9V38.3z"/>
	<path d="M177.9,48.6c-0.4-0.2-0.4-0.3-0.4-0.8c0-1.3,0.1-2.6,0.1-3c0-0.3,0.1-0.6,0.3-0.6c0.2,0,0.2,0.2,0.2,0.4
		c0,0.3,0.1,0.8,0.2,1.2c0.5,1.7,1.8,2.3,3.3,2.3c2.1,0,3.1-1.4,3.1-2.6c0-1.1-0.3-2.2-2.2-3.7l-1-0.8c-2.5-2-3.4-3.6-3.4-5.4
		c0-2.5,2.1-4.3,5.3-4.3c1.5,0,2.4,0.2,3,0.4c0.2,0,0.3,0.1,0.3,0.3c0,0.3-0.1,1-0.1,2.7c0,0.5-0.1,0.7-0.3,0.7
		c-0.2,0-0.2-0.1-0.2-0.4c0-0.2-0.1-0.9-0.6-1.5c-0.3-0.4-1-1.1-2.5-1.1c-1.7,0-2.7,1-2.7,2.3c0,1,0.5,1.8,2.4,3.3l0.6,0.5
		c2.8,2.1,3.7,3.7,3.7,5.8c0,1.3-0.5,2.9-2.1,4c-1.1,0.7-2.4,0.9-3.6,0.9C179.9,49.2,178.8,49,177.9,48.6z"/>
	<path d="M198.4,38.3c0-3.5,0-4.1,0-4.8c0-0.8-0.3-1.2-0.8-1.3c-0.3-0.1-0.5-0.1-0.8-0.1c-0.2,0-0.4,0-0.4-0.2
		c0-0.1,0.2-0.2,0.5-0.2c0.9,0,2.3,0.1,3,0.1c0.6,0,1.9-0.1,2.8-0.1c0.3,0,0.5,0,0.5,0.2c0,0.2-0.1,0.2-0.4,0.2
		c-0.2,0-0.4,0-0.7,0.1c-0.6,0.1-0.8,0.5-0.8,1.3c0,0.7,0,1.4,0,4.8v4c0,2.2,0,4,0.1,5c0.1,0.6,0.2,1,0.9,1.1c0.3,0,0.8,0.1,1.2,0.1
		c0.3,0,0.4,0.1,0.4,0.2c0,0.2-0.2,0.2-0.4,0.2c-1.5,0-2.9-0.1-3.6-0.1c-0.5,0-2,0.1-2.9,0.1c-0.3,0-0.5-0.1-0.5-0.2
		c0-0.1,0.1-0.2,0.4-0.2c0.3,0,0.6,0,0.8-0.1c0.5-0.1,0.6-0.5,0.7-1.1c0.1-1,0.1-2.8,0.1-5V38.3z M198.5,28.6c0-0.6,0.4-1.3,1.3-1.3
		c0.7,0,1.3,0.5,1.3,1.2c0,0.8-0.5,1.4-1.3,1.4C198.9,29.9,198.5,29.2,198.5,28.6z"/>
	<path d="M217.4,39.3h0.1c0.8-0.8,4.1-4.2,4.8-5c0.6-0.8,1.1-1.3,1.1-1.7c0-0.3-0.1-0.4-0.3-0.5c-0.2,0-0.3-0.1-0.3-0.2
		c0-0.2,0.1-0.2,0.4-0.2c0.5,0,1.7,0.1,2.3,0.1c0.7,0,2-0.1,2.7-0.1c0.2,0,0.4,0,0.4,0.2s-0.1,0.2-0.3,0.2c-0.3,0-0.9,0.1-1.3,0.3
		c-0.7,0.3-1.5,0.8-2.5,1.7c-0.7,0.7-4.2,4.1-4.9,4.9c0.8,1.1,5.3,5.9,6.2,6.7c1,1,2,2,3.3,2.5c0.7,0.3,1.1,0.3,1.4,0.3
		c0.2,0,0.3,0,0.3,0.2c0,0.2-0.1,0.2-0.5,0.2h-2c-0.7,0-1.1,0-1.6,0c-1.2-0.1-1.8-0.6-2.8-1.5c-1-0.9-5.5-6.2-6-6.8l-0.3-0.3h-0.1
		v2.1c0,2.1,0,3.9,0.1,4.9c0,0.6,0.3,1.1,0.8,1.2c0.3,0,0.8,0.1,1.1,0.1c0.2,0,0.3,0.1,0.3,0.2c0,0.2-0.2,0.2-0.4,0.2
		c-1.3,0-2.7-0.1-3.3-0.1c-0.5,0-2,0.1-2.9,0.1c-0.3,0-0.5-0.1-0.5-0.2c0-0.1,0.1-0.2,0.4-0.2c0.3,0,0.6,0,0.8-0.1
		c0.5-0.1,0.6-0.6,0.7-1.3c0.1-1,0.1-2.8,0.1-4.9v-4c0-3.5,0-4.1,0-4.8c0-0.8-0.2-1.1-1-1.3c-0.2,0-0.6-0.1-0.9-0.1
		c-0.3,0-0.4,0-0.4-0.2s0.2-0.2,0.5-0.2c1.2,0,2.6,0.1,3.2,0.1c0.5,0,2-0.1,2.8-0.1c0.3,0,0.5,0,0.5,0.2s-0.1,0.2-0.3,0.2
		c-0.2,0-0.4,0-0.6,0.1c-0.6,0.1-0.8,0.5-0.8,1.3c0,0.7,0,1.4,0,4.8V39.3z"/>
	<path d="M235.7,40.3c0-3.9,2.6-8.9,9.4-8.9c5.7,0,9.2,3.3,9.2,8.5c0,5.2-3.6,9.4-9.4,9.4C238.4,49.2,235.7,44.3,235.7,40.3z
		 M251.2,40.7c0-5.1-2.9-8.3-6.7-8.3c-2.6,0-5.6,1.5-5.6,7.1c0,4.7,2.6,8.5,7,8.5C247.5,48.1,251.2,47.3,251.2,40.7z"/>
	<path d="M267.9,42.3c0,2.9,0,4.5,0.5,4.9c0.4,0.3,1,0.5,2.8,0.5c1.2,0,2.1,0,2.7-0.6c0.3-0.3,0.5-0.9,0.6-1.4
		c0-0.2,0.1-0.3,0.3-0.3c0.2,0,0.2,0.1,0.2,0.4c0,0.3-0.2,2-0.3,2.6c-0.1,0.5-0.3,0.6-1.4,0.6c-1.6,0-2.8,0-3.9-0.1
		c-1,0-1.8-0.1-2.8-0.1c-0.2,0-0.8,0-1.3,0c-0.5,0-1.1,0-1.6,0c-0.3,0-0.5-0.1-0.5-0.2c0-0.1,0.1-0.2,0.4-0.2c0.3,0,0.6,0,0.8-0.1
		c0.5-0.1,0.6-0.6,0.7-1.3c0.1-1,0.1-2.8,0.1-4.9v-4c0-3.5,0-4.1,0-4.8c0-0.8-0.2-1.1-1-1.3c-0.2,0-0.5-0.1-0.8-0.1
		c-0.3,0-0.4,0-0.4-0.2s0.2-0.2,0.5-0.2c1.1,0,2.5,0.1,3.1,0.1c0.5,0,2.2-0.1,3.1-0.1c0.3,0,0.5,0,0.5,0.2s-0.1,0.2-0.4,0.2
		c-0.3,0-0.6,0-0.9,0.1c-0.6,0.1-0.8,0.5-0.8,1.3c0,0.7,0,1.4,0,4.8V42.3z"/>
	<path d="M282.3,40.3c0-3.9,2.6-8.9,9.4-8.9c5.7,0,9.2,3.3,9.2,8.5c0,5.2-3.6,9.4-9.4,9.4C284.9,49.2,282.3,44.3,282.3,40.3z
		 M297.7,40.7c0-5.1-2.9-8.3-6.7-8.3c-2.6,0-5.6,1.5-5.6,7.1c0,4.7,2.6,8.5,7,8.5C294,48.1,297.7,47.3,297.7,40.7z"/>
	<path d="M311.6,38.3c0-3.5,0-4.1,0-4.8c0-0.8-0.2-1.1-1-1.3c-0.2,0-0.6-0.1-0.9-0.1c-0.3,0-0.4,0-0.4-0.2s0.2-0.2,0.5-0.2
		c1.2,0,2.6,0.1,3.2,0.1c0.5,0,2-0.1,2.9-0.1c0.3,0,0.5,0,0.5,0.2s-0.1,0.2-0.4,0.2c-0.3,0-0.4,0-0.7,0.1c-0.6,0.1-0.8,0.5-0.8,1.3
		c0,0.7,0,1.4,0,4.8v4.2c0,1,0.1,2.1,0.1,3.2c0,1.3-0.1,2.8-0.5,4c-0.5,1.4-1.7,3-3.9,4.3c-0.3,0.2-0.7,0.4-1.1,0.6
		c-0.2,0.1-0.3,0.1-0.5,0.1c-0.1,0-0.2-0.1-0.2-0.2s0.1-0.2,0.5-0.4c0.3-0.2,0.6-0.4,1.1-0.9c1.7-1.8,1.7-4,1.7-8.5V38.3z"/>
	<path d="M327.1,38.3c0-3.5,0-4.1,0-4.8c0-0.8-0.3-1.2-0.8-1.3c-0.3-0.1-0.5-0.1-0.8-0.1c-0.2,0-0.4,0-0.4-0.2
		c0-0.1,0.2-0.2,0.5-0.2c0.9,0,2.3,0.1,3,0.1c0.6,0,1.9-0.1,2.8-0.1c0.3,0,0.5,0,0.5,0.2c0,0.2-0.1,0.2-0.4,0.2
		c-0.2,0-0.4,0-0.7,0.1c-0.6,0.1-0.8,0.5-0.8,1.3c0,0.7,0,1.4,0,4.8v4c0,2.2,0,4,0.1,5c0.1,0.6,0.2,1,0.9,1.1c0.3,0,0.8,0.1,1.2,0.1
		c0.3,0,0.4,0.1,0.4,0.2c0,0.2-0.2,0.2-0.4,0.2c-1.5,0-2.9-0.1-3.6-0.1c-0.5,0-2,0.1-2.9,0.1c-0.3,0-0.5-0.1-0.5-0.2
		c0-0.1,0.1-0.2,0.4-0.2c0.3,0,0.6,0,0.8-0.1c0.5-0.1,0.6-0.5,0.7-1.1c0.1-1,0.1-2.8,0.1-5V38.3z M327.2,28.6c0-0.6,0.4-1.3,1.3-1.3
		c0.7,0,1.3,0.5,1.3,1.2c0,0.8-0.5,1.4-1.3,1.4C327.6,29.9,327.2,29.2,327.2,28.6z"/>
</g>
<g>
	<path d="M157,79.7c-0.4-0.2-0.4-0.3-0.4-0.8c0-1.3,0.1-2.6,0.1-3c0-0.3,0.1-0.6,0.3-0.6c0.2,0,0.2,0.2,0.2,0.4
		c0,0.3,0.1,0.8,0.2,1.2c0.5,1.7,1.8,2.3,3.3,2.3c2.1,0,3.1-1.4,3.1-2.6c0-1.1-0.3-2.2-2.2-3.7l-1-0.8c-2.5-2-3.4-3.6-3.4-5.4
		c0-2.5,2.1-4.3,5.3-4.3c1.5,0,2.4,0.2,3,0.4c0.2,0,0.3,0.1,0.3,0.3c0,0.3-0.1,1-0.1,2.7c0,0.5-0.1,0.7-0.3,0.7
		c-0.2,0-0.2-0.1-0.2-0.4c0-0.2-0.1-0.9-0.6-1.5c-0.3-0.4-1-1.1-2.5-1.1c-1.7,0-2.7,1-2.7,2.3c0,1,0.5,1.8,2.4,3.3l0.6,0.5
		c2.8,2.1,3.7,3.7,3.7,5.8c0,1.3-0.5,2.9-2.1,4c-1.1,0.7-2.4,0.9-3.6,0.9C159,80.3,157.9,80.2,157,79.7z"/>
	<path d="M178.4,71.4c0-3.9,2.6-8.9,9.4-8.9c5.7,0,9.2,3.3,9.2,8.5c0,5.2-3.6,9.4-9.4,9.4C181.1,80.3,178.4,75.4,178.4,71.4z
		 M193.9,71.8c0-5.1-2.9-8.3-6.7-8.3c-2.6,0-5.6,1.5-5.6,7.1c0,4.7,2.6,8.5,7,8.5C190.2,79.2,193.9,78.4,193.9,71.8z M184.3,59.9
		c0-0.4,0.3-1,1-1c0.6,0,1.1,0.4,1.1,1c0,0.6-0.4,1.1-1.1,1.1C184.6,61,184.3,60.4,184.3,59.9z M189.1,59.9c0-0.5,0.3-1.1,1-1.1
		c0.6,0,1.1,0.4,1.1,1s-0.4,1.1-1.1,1.1C189.4,61,189.1,60.4,189.1,59.9z"/>
	<path d="M218.4,78.7c2.3,0,3.2-0.6,3.6-1.3c0.2-0.4,0.3-0.8,0.4-1.1c0-0.2,0.1-0.4,0.2-0.4c0.2,0,0.2,0.2,0.2,0.7
		c0,0.7-0.3,2.2-0.5,2.8c-0.1,0.4-0.3,0.6-0.7,0.6c-3.8,0-7.6-0.1-12.2-0.1c-0.3,0-0.4-0.1-0.4-0.2c0-0.2,0.1-0.3,0.3-0.7
		c3.2-5,6.6-10.2,9.6-15h-4.5c-1.2,0-2.6,0.1-3.3,0.5c-0.8,0.4-1.2,1.3-1.2,1.8c0,0.3-0.1,0.4-0.3,0.4c-0.2,0-0.2-0.1-0.2-0.4
		c0-0.5,0.3-2.6,0.5-3.3c0-0.3,0.1-0.4,0.3-0.4c0.2,0,0.3,0.1,0.9,0.2c2.2,0.1,3.3,0.1,4.2,0.1h7c0.2,0,0.4,0.1,0.4,0.2
		c0,0.1-0.1,0.3-0.2,0.4c-3.1,5.1-6.6,10.3-9.8,15.2H218.4z"/>
	<path d="M239.9,73.4c0,2.9,0,4.5,0.5,4.9c0.4,0.3,1,0.5,2.8,0.5c1.2,0,2.1,0,2.7-0.6c0.3-0.3,0.5-0.9,0.6-1.4
		c0-0.2,0.1-0.3,0.3-0.3c0.2,0,0.2,0.1,0.2,0.4c0,0.3-0.2,2-0.3,2.6c-0.1,0.5-0.3,0.6-1.4,0.6c-1.6,0-2.8,0-3.9-0.1
		c-1,0-1.8-0.1-2.8-0.1c-0.2,0-0.8,0-1.3,0c-0.5,0-1.1,0-1.6,0c-0.3,0-0.5-0.1-0.5-0.2c0-0.1,0.1-0.2,0.4-0.2c0.3,0,0.6,0,0.8-0.1
		c0.5-0.1,0.6-0.6,0.7-1.3c0.1-1,0.1-2.8,0.1-4.9v-4c0-3.5,0-4.1,0-4.8c0-0.8-0.2-1.1-1-1.3c-0.2,0-0.5-0.1-0.8-0.1
		c-0.3,0-0.4,0-0.4-0.2c0-0.2,0.2-0.2,0.5-0.2c1.1,0,2.5,0.1,3.1,0.1c0.5,0,2.2-0.1,3.1-0.1c0.3,0,0.5,0,0.5,0.2
		c0,0.2-0.1,0.2-0.4,0.2c-0.3,0-0.6,0-0.9,0.1c-0.6,0.1-0.8,0.5-0.8,1.3c0,0.7,0,1.4,0,4.8V73.4z"/>
	<path d="M258.9,69.4c0-3.5,0-4.1,0-4.8c0-0.8-0.2-1.1-1-1.3c-0.2,0-0.6-0.1-0.9-0.1c-0.3,0-0.4,0-0.4-0.2c0-0.2,0.2-0.2,0.5-0.2
		c1.2,0,2.6,0.1,3.3,0.1c0.5,0,2-0.1,2.8-0.1c0.3,0,0.5,0,0.5,0.2c0,0.2-0.1,0.2-0.4,0.2c-0.3,0-0.4,0-0.7,0.1
		c-0.6,0.1-0.8,0.5-0.8,1.3c0,0.7,0,1.4,0,4.8v3.2c0,3.3,0.7,4.7,1.8,5.6c1,0.8,2.1,0.9,2.9,0.9c1,0,2.2-0.3,3.1-1.2
		c1.3-1.3,1.3-3.3,1.3-5.7v-2.9c0-3.5,0-4.1,0-4.8c0-0.8-0.2-1.1-1-1.3c-0.2,0-0.6-0.1-0.8-0.1s-0.4,0-0.4-0.2
		c0-0.2,0.2-0.2,0.5-0.2c1.2,0,2.6,0.1,2.6,0.1c0.3,0,1.7-0.1,2.6-0.1c0.3,0,0.5,0,0.5,0.2c0,0.2-0.1,0.2-0.4,0.2
		c-0.3,0-0.4,0-0.7,0.1c-0.6,0.1-0.8,0.5-0.8,1.3c0,0.7,0,1.4,0,4.8v2.4c0,2.5-0.3,5.2-2.2,6.9c-1.6,1.4-3.3,1.6-4.7,1.6
		c-1.2,0-3.4-0.1-5.1-1.6c-1.2-1-2-2.7-2-6V69.4z M262.8,59.9c0-0.4,0.3-1,1-1c0.6,0,1.1,0.4,1.1,1c0,0.6-0.4,1.1-1.1,1.1
		C263.1,61,262.8,60.4,262.8,59.9z M267.6,59.9c0-0.5,0.3-1.1,1-1.1c0.6,0,1.1,0.4,1.1,1s-0.4,1.1-1.1,1.1
		C267.9,61,267.6,60.4,267.6,59.9z"/>
	<path d="M302.5,78.5c0,0.6,0,0.7-0.3,0.8c-1.5,0.8-3.7,1-5.5,1c-5.6,0-10.5-2.6-10.5-8.9c0-3.6,1.9-6.2,4-7.5
		c2.2-1.3,4.2-1.5,6.1-1.5c1.6,0,3.6,0.3,4,0.4c0.5,0.1,1.3,0.2,1.8,0.3c0.3,0,0.3,0.1,0.3,0.3c0,0.3-0.2,0.9-0.2,3.7
		c0,0.4-0.1,0.5-0.2,0.5c-0.2,0-0.2-0.1-0.2-0.3c-0.1-0.5-0.2-1.3-0.8-1.9c-0.7-0.7-2.5-1.8-5.1-1.8c-1.3,0-2.9,0.1-4.5,1.4
		c-1.3,1.1-2.1,2.8-2.1,5.6c0,4.9,3.1,8.6,7.9,8.6c0.6,0,1.4,0,1.9-0.3c0.3-0.2,0.4-0.5,0.4-0.8v-2.1c0-1.1,0-2,0-2.7
		c0-0.8-0.2-1.1-1-1.3c-0.2,0-0.6-0.1-0.9-0.1c-0.2,0-0.3,0-0.3-0.2c0-0.2,0.2-0.2,0.5-0.2c1.2,0,2.6,0.1,3.3,0.1
		c0.7,0,1.9-0.1,2.7-0.1c0.3,0,0.5,0,0.5,0.2c0,0.1-0.1,0.2-0.3,0.2c-0.2,0-0.3,0-0.6,0.1c-0.6,0.1-0.8,0.5-0.9,1.3
		c0,0.7,0,1.6,0,2.7V78.5z M292.7,59.1l0.8-0.6c0.2-0.1,0.2-0.2,0.3-0.2c0.1,0,0.3,0.3,0.5,0.5c0.8,0.9,1.5,1,2.1,1
		c1,0,1.8-0.5,2-0.6c0.7-0.5,0.8-0.8,1-0.8c0.1,0,0.2,0.1,0.2,0.2c0,0.3-0.9,1.3-1.4,1.7c-0.8,0.5-1.3,0.8-2.5,0.8
		c-0.6,0-1.6-0.3-2.3-0.8c-0.3-0.3-0.8-0.7-0.8-0.9C292.5,59.1,292.6,59.1,292.7,59.1z"/>
	<path d="M317.3,69.4c0-3.5,0-4.1,0-4.8c0-0.8-0.2-1.1-1-1.3c-0.2,0-0.6-0.1-0.9-0.1c-0.3,0-0.4,0-0.4-0.2c0-0.2,0.2-0.2,0.5-0.2
		c1.2,0,2.6,0.1,3.3,0.1c0.5,0,2-0.1,2.8-0.1c0.3,0,0.5,0,0.5,0.2c0,0.2-0.1,0.2-0.4,0.2c-0.3,0-0.4,0-0.7,0.1
		c-0.6,0.1-0.8,0.5-0.8,1.3c0,0.7,0,1.4,0,4.8v3.2c0,3.3,0.7,4.7,1.8,5.6c1,0.8,2.1,0.9,2.9,0.9c1,0,2.2-0.3,3.1-1.2
		c1.3-1.3,1.3-3.3,1.3-5.7v-2.9c0-3.5,0-4.1,0-4.8c0-0.8-0.2-1.1-1-1.3c-0.2,0-0.6-0.1-0.8-0.1s-0.4,0-0.4-0.2
		c0-0.2,0.2-0.2,0.5-0.2c1.2,0,2.6,0.1,2.6,0.1c0.3,0,1.7-0.1,2.6-0.1c0.3,0,0.5,0,0.5,0.2c0,0.2-0.1,0.2-0.4,0.2
		c-0.3,0-0.4,0-0.7,0.1c-0.6,0.1-0.8,0.5-0.8,1.3c0,0.7,0,1.4,0,4.8v2.4c0,2.5-0.3,5.2-2.2,6.9c-1.6,1.4-3.3,1.6-4.7,1.6
		c-1.2,0-3.4-0.1-5.1-1.6c-1.2-1-2-2.7-2-6V69.4z M321.3,59.9c0-0.4,0.3-1,1-1c0.6,0,1.1,0.4,1.1,1c0,0.6-0.4,1.1-1.1,1.1
		C321.6,61,321.3,60.4,321.3,59.9z M326.1,59.9c0-0.5,0.3-1.1,1-1.1c0.6,0,1.1,0.4,1.1,1s-0.4,1.1-1.1,1.1
		C326.4,61,326.1,60.4,326.1,59.9z"/>
</g>
</svg>
