<svg version="1.2" baseProfile="tiny" xmlns="http://www.w3.org/2000/svg" width="78" height="78" overflow="visible" xml:space="preserve"><path fill="#D8584B" d="M0 0h78v78H0z"/><path fill="#FFF" d="M31.4 38.1c1.8 0 3.3-.3 4.4-1 1.2-.6 2-1.4 2.5-2.4s.8-2.5 1-4.5.4-3.4.7-4.3c.4-1.1 1.2-2 2.2-2.7 1-.7 2.5-1.1 4.2-1.1v.8c-1 .1-1.7.4-2.1 1-.3.4-.4 1.4-.4 3.1 0 3.2-.4 5.5-.9 6.8-.7 1.7-2 3.1-3.9 4.1-1.8 1-4.4 1.6-7.7 1.7v8.8c0 1.2.3 2.1.8 2.6s1.5.8 2.8.8h.8v.8H22.7v-.8h.8c1.3 0 2.2-.3 2.8-.8s.8-1.4.8-2.6v-8.8c-2.8-.1-5-.5-6.7-1.2-1.6-.7-3-1.7-3.9-2.9-.7-.8-1.1-1.7-1.4-2.6-.2-.6-.3-1.4-.4-2.2l-.1-5.1c-.1-.9-.3-1.5-.6-1.9s-1-.6-2-.6v-.8c1.8.1 3.2.4 4.2 1s1.7 1.4 2.1 2.4c.4 1 .7 2.7.8 5 .1 1.7.4 3.1.9 4.1.5 1 1.4 1.8 2.5 2.4 1.2.6 2.7.9 4.5 1V26.9c0-1.2-.3-2.1-.8-2.6s-1.5-.8-2.8-.8h-.8v-.8h13.1v.8H35c-1.3 0-2.2.3-2.8.8s-.8 1.4-.8 2.6v11.2zM57.7 32.8v13.3c.8-.1 1.4-.4 1.9-.8s.9-1.1 1.2-2.1c.3-1 .6-2.7.9-5.3.2-2.1.5-3.5 1-4.3.5-.8 1.3-1.2 2.4-1.2.4 0 .9.1 1.7.3v.5c-.4 0-.7.1-1 .2-.3.2-.5.6-.7 1.1-.2.5-.3 1.5-.5 3-.2 2.3-.6 4-1 5.1-.3.8-.8 1.5-1.5 2.2-.6.7-1.3 1.2-2 1.5-.7.3-1.5.6-2.4.7v6.2h-1.6V47c-1.4-.2-2.5-.6-3.6-1.4s-1.8-1.8-2.3-2.9c-.4-.9-.7-2.6-1-5.1-.2-1.5-.3-2.5-.5-3.1-.2-.5-.4-.9-.7-1.1-.2-.1-.5-.2-1-.2v-.5c.8-.2 1.4-.3 1.7-.3.6 0 1.1.2 1.6.5s.9.8 1.1 1.5c.2.7.4 1.8.6 3.5.2 2.5.5 4.2.8 5.2.3 1 .8 1.7 1.2 2.1.5.4 1.1.7 1.9.9V32.8h1.8zM14.1 55.9h50.5v3.4H14.1z"/></svg>